<?xml version="1.0" encoding="UTF-8"?>
<svg id="_Слой_2" data-name="Слой 2" xmlns="http://www.w3.org/2000/svg" viewBox="0 0 92.61 94.09">
  <defs>
    <style>
      .cls-1 {
        fill: #61b648;
      }
    </style>
  </defs>
  <g id="_Слой_1-2" data-name="Слой 1">
    <path id="path3801" class="cls-1" d="M46.3,0c-8.02,0-21.21,.34-28.87,1.27C6.84,2.54,2.63,8.02,1.48,18.02c-.88,7.66-1.48,18.71-1.48,29.02s.2,21.46,1.48,29.06c1.68,9.92,6.35,15.18,15.95,16.72,7.61,1.22,21.63,1.27,28.87,1.27s21.27-.04,28.87-1.27c9.6-1.55,14.17-6.75,15.95-16.72,1.36-7.59,1.48-19.21,1.48-29.06s-.87-22.93-1.48-29.02c-1.04-10.33-5.49-15.37-15.95-16.75-7.64-1.01-20.85-1.27-28.87-1.27Zm32.52,10.63c2.07,.87,5.64,6.19,4.82,12.02-4.01,3.22-8.83,5.54-13.48,6.27v37.16h13.82c-.03,5.7-.87,10.3-1.82,11.96h-25.34V29.52h-17.62v28.96c0,14.59-8.22,21.79-18.7,21.79-2.93,0-6.48-.36-9.49-1.23-1.39-1.91-2.08-7.56-2.23-14.59,6.97,3.4,16.42,4.96,17.22-5.97V31.34c-10.61,1.17-14.52,8.6-18.14,13.54,.07-6.66,.43-12.64,.74-16.69,7.26-7.8,15.38-11.47,31.37-11.47h22.9c5.52,0,10.9-2.09,15.95-6.09Z"/>
  </g>
</svg>